<?xml version="1.0" encoding="UTF-8"?>
<svg xmlns="http://www.w3.org/2000/svg" width="512" height="512" viewBox="0 0 512 512" fill="none">
  <!-- Hawker Centre / Kopitiam | tile 512x512 | dimetric vector | transparent bg -->
  <rect x="36.0" y="70.0" width="440.0" height="400.0" rx="28" ry="28" fill="#E8EBEF"/>
  <ellipse cx="256.0" cy="466.0" rx="184.8" ry="14.0" fill="#00000018"/>
  <ellipse cx="233.8" cy="243.2" rx="158.2" ry="14.0" fill="#00000018"/>
  <rect x="70.0" y="70.0" width="300.0" height="150.0" rx="14" ry="14" fill="#F7F4EE"/>
  <path d="M370.0,74.0 L370.0,220.0 L425.0,188.0 L425.0,42.0 Z" fill="#E8E2D6"/>
  <path d="M76.0,70.0 L370.0,70.0 L425.0,38.0 L131.0,38.0 Z" fill="#E8A06A"/>
  <rect x="70.0" y="70.0" width="300.0" height="15.0" rx="4.8999999999999995" ry="4.8999999999999995" fill="#D48852"/>
  <path d="M100,42 L350,42 L390,18 L140,18 Z" fill="#F0B07A"/>
  <rect x="100.0" y="42.0" width="250.0" height="10.0" rx="4" ry="4" fill="#D48852"/>
  <path d="M145,28 L320,28 L345,10 L170,10 Z" fill="#E8A06A"/>
  <rect x="95.0" y="155.0" width="44.0" height="55.0" rx="8" ry="8" fill="#FFFEFB"/>
  <rect x="100.0" y="161.0" width="34.0" height="12.0" rx="4" ry="4" fill="#E57373"/>
  <rect x="105.0" y="181.0" width="24.0" height="20.0" rx="4" ry="4" fill="#D9D2C4"/>
  <rect x="147.0" y="155.0" width="44.0" height="55.0" rx="8" ry="8" fill="#FFFEFB"/>
  <rect x="152.0" y="161.0" width="34.0" height="12.0" rx="4" ry="4" fill="#6BA3D9"/>
  <rect x="157.0" y="181.0" width="24.0" height="20.0" rx="4" ry="4" fill="#D9D2C4"/>
  <rect x="199.0" y="155.0" width="44.0" height="55.0" rx="8" ry="8" fill="#FFFEFB"/>
  <rect x="204.0" y="161.0" width="34.0" height="12.0" rx="4" ry="4" fill="#F5D76E"/>
  <rect x="209.0" y="181.0" width="24.0" height="20.0" rx="4" ry="4" fill="#D9D2C4"/>
  <rect x="251.0" y="155.0" width="44.0" height="55.0" rx="8" ry="8" fill="#FFFEFB"/>
  <rect x="256.0" y="161.0" width="34.0" height="12.0" rx="4" ry="4" fill="#4A9B6E"/>
  <rect x="261.0" y="181.0" width="24.0" height="20.0" rx="4" ry="4" fill="#D9D2C4"/>
  <rect x="303.0" y="155.0" width="44.0" height="55.0" rx="8" ry="8" fill="#FFFEFB"/>
  <rect x="308.0" y="161.0" width="34.0" height="12.0" rx="4" ry="4" fill="#ED2939"/>
  <rect x="313.0" y="181.0" width="24.0" height="20.0" rx="4" ry="4" fill="#D9D2C4"/>
  <ellipse cx="140.0" cy="140.0" rx="16.0" ry="5.0" fill="#F5F5F5"/>
  <ellipse cx="140.0" cy="140.0" rx="5.0" ry="14.0" fill="#F5F5F5"/>
  <circle cx="140.0" cy="140.0" r="4.0" fill="#5A6270"/>
  <ellipse cx="230.0" cy="140.0" rx="16.0" ry="5.0" fill="#F5F5F5"/>
  <ellipse cx="230.0" cy="140.0" rx="5.0" ry="14.0" fill="#F5F5F5"/>
  <circle cx="230.0" cy="140.0" r="4.0" fill="#5A6270"/>
  <ellipse cx="320.0" cy="140.0" rx="16.0" ry="5.0" fill="#F5F5F5"/>
  <ellipse cx="320.0" cy="140.0" rx="5.0" ry="14.0" fill="#F5F5F5"/>
  <circle cx="320.0" cy="140.0" r="4.0" fill="#5A6270"/>
  <ellipse cx="100.0" cy="336.0" rx="26.0" ry="7.0" fill="#00000018"/>
  <ellipse cx="100.0" cy="320.0" rx="24.0" ry="13.0" fill="#F7E08A"/>
  <ellipse cx="100.0" cy="323.0" rx="24.0" ry="9.0" fill="#E0C255"/>
  <ellipse cx="74.0" cy="328.0" rx="7.0" ry="5.0" fill="#E57373"/>
  <ellipse cx="126.0" cy="328.0" rx="7.0" ry="5.0" fill="#6BA3D9"/>
  <ellipse cx="92.0" cy="340.0" rx="7.0" ry="5.0" fill="#E57373"/>
  <ellipse cx="110.0" cy="306.0" rx="7.0" ry="5.0" fill="#6BA3D9"/>
  <ellipse cx="200.0" cy="366.0" rx="26.0" ry="7.0" fill="#00000018"/>
  <ellipse cx="200.0" cy="350.0" rx="24.0" ry="13.0" fill="#F7E08A"/>
  <ellipse cx="200.0" cy="353.0" rx="24.0" ry="9.0" fill="#E0C255"/>
  <ellipse cx="174.0" cy="358.0" rx="7.0" ry="5.0" fill="#E57373"/>
  <ellipse cx="226.0" cy="358.0" rx="7.0" ry="5.0" fill="#6BA3D9"/>
  <ellipse cx="192.0" cy="370.0" rx="7.0" ry="5.0" fill="#E57373"/>
  <ellipse cx="210.0" cy="336.0" rx="7.0" ry="5.0" fill="#6BA3D9"/>
  <ellipse cx="310.0" cy="341.0" rx="26.0" ry="7.0" fill="#00000018"/>
  <ellipse cx="310.0" cy="325.0" rx="24.0" ry="13.0" fill="#F7E08A"/>
  <ellipse cx="310.0" cy="328.0" rx="24.0" ry="9.0" fill="#E0C255"/>
  <ellipse cx="284.0" cy="333.0" rx="7.0" ry="5.0" fill="#E57373"/>
  <ellipse cx="336.0" cy="333.0" rx="7.0" ry="5.0" fill="#6BA3D9"/>
  <ellipse cx="302.0" cy="345.0" rx="7.0" ry="5.0" fill="#E57373"/>
  <ellipse cx="320.0" cy="311.0" rx="7.0" ry="5.0" fill="#6BA3D9"/>
  <ellipse cx="400.0" cy="371.0" rx="26.0" ry="7.0" fill="#00000018"/>
  <ellipse cx="400.0" cy="355.0" rx="24.0" ry="13.0" fill="#F7E08A"/>
  <ellipse cx="400.0" cy="358.0" rx="24.0" ry="9.0" fill="#E0C255"/>
  <ellipse cx="374.0" cy="363.0" rx="7.0" ry="5.0" fill="#E57373"/>
  <ellipse cx="426.0" cy="363.0" rx="7.0" ry="5.0" fill="#6BA3D9"/>
  <ellipse cx="392.0" cy="375.0" rx="7.0" ry="5.0" fill="#E57373"/>
  <ellipse cx="410.0" cy="341.0" rx="7.0" ry="5.0" fill="#6BA3D9"/>
  <rect x="420.0" y="280.0" width="34.0" height="48.0" rx="8" ry="8" fill="#6BA3D9"/>
  <rect x="426.0" y="288.0" width="22.0" height="9.0" rx="3" ry="3" fill="#FFFEFB"/>
  <rect x="426.0" y="302.0" width="22.0" height="9.0" rx="3" ry="3" fill="#FFFEFB"/>
  <ellipse cx="445.0" cy="360.0" rx="14.0" ry="5.0" fill="#00000018"/>
  <rect x="434.0" y="340.0" width="24.0" height="30.0" rx="10" ry="10" fill="#5EAA62"/>
  <rect x="438.0" y="345.0" width="16.0" height="10.0" rx="4" ry="4" fill="#F5D76E"/>
</svg>
