<?xml version="1.0" encoding="UTF-8"?>
<svg xmlns="http://www.w3.org/2000/svg" width="512" height="512" viewBox="0 0 512 512" fill="none">
  <!-- NTUC FairPrice | tile 512x512 | dimetric vector | transparent bg -->
  <rect x="60.0" y="300.0" width="360.0" height="140.0" rx="24" ry="24" fill="#E8EBEF"/>
  <ellipse cx="240.0" cy="436.0" rx="151.2" ry="14.0" fill="#00000018"/>
  <ellipse cx="241.7" cy="308.5" rx="147.0" ry="14.0" fill="#00000018"/>
  <rect x="90.0" y="87.0" width="280.0" height="200.0" rx="14" ry="14" fill="#FFFEFB"/>
  <path d="M370.0,91.0 L370.0,287.0 L416.8,259.8 L416.8,63.8 Z" fill="#F0EDE6"/>
  <path d="M96.0,87.0 L370.0,87.0 L416.8,59.8 L142.8,59.8 Z" fill="#E31C23"/>
  <rect x="90.0" y="87.0" width="280.0" height="16.0" rx="4.8999999999999995" ry="4.8999999999999995" fill="#C0151B"/>
  <rect x="90.0" y="110.0" width="280.0" height="48.0" rx="8" ry="8" fill="#E31C23"/>
  <rect x="200.0" y="122.0" width="36.0" height="22.0" rx="4" ry="4" fill="#FFFEFB"/>
  <path d="M198,120 L190,120 L186,128 L198,128 Z" fill="#FFFEFB"/>
  <circle cx="208.0" cy="148.0" r="5.0" fill="#FFFEFB"/>
  <circle cx="228.0" cy="148.0" r="5.0" fill="#FFFEFB"/>
  <rect x="232.0" y="118.0" width="4.0" height="18.0" rx="2" ry="2" fill="#FFFEFB"/>
  <rect x="110.0" y="185.0" width="100.0" height="70.0" rx="10" ry="10" fill="#7EB3E0"/>
  <rect x="250.0" y="185.0" width="100.0" height="70.0" rx="10" ry="10" fill="#7EB3E0"/>
  <rect x="200.0" y="200.0" width="36.0" height="55.0" rx="8" ry="8" fill="#5A6270"/>
  <rect x="160.0" y="340.0" width="140.0" height="14.0" rx="5" ry="5" fill="#F5F7FA"/>
</svg>
