<?xml version="1.0" encoding="UTF-8"?>
<svg xmlns="http://www.w3.org/2000/svg" width="64" height="64" viewBox="0 0 64 64" fill="none">
  <!-- Letterbox | 64x64 | 64-grid modular tileset -->
  <ellipse cx="32.00" cy="54.00" rx="18.00" ry="4.00" fill="#3A4A3828"/>
  <rect x="12.00" y="12.00" width="40.00" height="40.00" rx="5" ry="5" fill="#5A6270"/>
  <rect x="15.00" y="15.00" width="34.00" height="34.00" rx="3" ry="3" fill="#3D4450"/>
  <rect x="18.00" y="18.00" width="8.00" height="8.00" rx="1.5" ry="1.5" fill="#F5F1E8"/>
  <rect x="20.50" y="21.00" width="3.00" height="2.00" rx="0.5" ry="0.5" fill="#5A6270"/>
  <rect x="28.00" y="18.00" width="8.00" height="8.00" rx="1.5" ry="1.5" fill="#FFFEFB"/>
  <rect x="30.50" y="21.00" width="3.00" height="2.00" rx="0.5" ry="0.5" fill="#5A6270"/>
  <rect x="38.00" y="18.00" width="8.00" height="8.00" rx="1.5" ry="1.5" fill="#F5F1E8"/>
  <rect x="40.50" y="21.00" width="3.00" height="2.00" rx="0.5" ry="0.5" fill="#5A6270"/>
  <rect x="18.00" y="28.00" width="8.00" height="8.00" rx="1.5" ry="1.5" fill="#FFFEFB"/>
  <rect x="20.50" y="31.00" width="3.00" height="2.00" rx="0.5" ry="0.5" fill="#5A6270"/>
  <rect x="28.00" y="28.00" width="8.00" height="8.00" rx="1.5" ry="1.5" fill="#F5F1E8"/>
  <rect x="30.50" y="31.00" width="3.00" height="2.00" rx="0.5" ry="0.5" fill="#5A6270"/>
  <rect x="38.00" y="28.00" width="8.00" height="8.00" rx="1.5" ry="1.5" fill="#FFFEFB"/>
  <rect x="40.50" y="31.00" width="3.00" height="2.00" rx="0.5" ry="0.5" fill="#5A6270"/>
  <rect x="18.00" y="38.00" width="8.00" height="8.00" rx="1.5" ry="1.5" fill="#F5F1E8"/>
  <rect x="20.50" y="41.00" width="3.00" height="2.00" rx="0.5" ry="0.5" fill="#5A6270"/>
  <rect x="28.00" y="38.00" width="8.00" height="8.00" rx="1.5" ry="1.5" fill="#FFFEFB"/>
  <rect x="30.50" y="41.00" width="3.00" height="2.00" rx="0.5" ry="0.5" fill="#5A6270"/>
  <rect x="38.00" y="38.00" width="8.00" height="8.00" rx="1.5" ry="1.5" fill="#F5F1E8"/>
  <rect x="40.50" y="41.00" width="3.00" height="2.00" rx="0.5" ry="0.5" fill="#5A6270"/>
</svg>
