<?xml version="1.0" encoding="UTF-8"?>
<svg xmlns="http://www.w3.org/2000/svg" width="512" height="512" viewBox="0 0 512 512" fill="none">
  <!-- HDB Void Deck | tile 512x512 | dimetric vector | transparent bg -->
  <ellipse cx="256.0" cy="450.0" rx="180.0" ry="16.0" fill="#00000018"/>
  <ellipse cx="241.0" cy="357.0" rx="156.6" ry="14.0" fill="#00000018"/>
  <rect x="80.0" y="56.0" width="300.0" height="280.0" rx="12" ry="12" fill="#F7F4EE"/>
  <path d="M380.0,60.0 L380.0,336.0 L424.0,310.4 L424.0,34.4 Z" fill="#E8E2D6"/>
  <path d="M86.0,56.0 L380.0,56.0 L424.0,30.4 L130.0,30.4 Z" fill="#D9D2C4"/>
  <rect x="80.0" y="56.0" width="300.0" height="16.0" rx="4.199999999999999" ry="4.199999999999999" fill="#D9D2C4"/>
  <rect x="110.0" y="80.0" width="28.0" height="26.0" rx="5" ry="5" fill="#7EB3E0"/>
  <rect x="156.0" y="80.0" width="28.0" height="26.0" rx="5" ry="5" fill="#7EB3E0"/>
  <rect x="202.0" y="80.0" width="28.0" height="26.0" rx="5" ry="5" fill="#7EB3E0"/>
  <rect x="248.0" y="80.0" width="28.0" height="26.0" rx="5" ry="5" fill="#7EB3E0"/>
  <rect x="294.0" y="80.0" width="28.0" height="26.0" rx="5" ry="5" fill="#7EB3E0"/>
  <rect x="110.0" y="122.0" width="28.0" height="26.0" rx="5" ry="5" fill="#7EB3E0"/>
  <rect x="156.0" y="122.0" width="28.0" height="26.0" rx="5" ry="5" fill="#7EB3E0"/>
  <rect x="202.0" y="122.0" width="28.0" height="26.0" rx="5" ry="5" fill="#7EB3E0"/>
  <rect x="248.0" y="122.0" width="28.0" height="26.0" rx="5" ry="5" fill="#7EB3E0"/>
  <rect x="294.0" y="122.0" width="28.0" height="26.0" rx="5" ry="5" fill="#7EB3E0"/>
  <rect x="110.0" y="164.0" width="28.0" height="26.0" rx="5" ry="5" fill="#7EB3E0"/>
  <rect x="156.0" y="164.0" width="28.0" height="26.0" rx="5" ry="5" fill="#7EB3E0"/>
  <rect x="202.0" y="164.0" width="28.0" height="26.0" rx="5" ry="5" fill="#7EB3E0"/>
  <rect x="248.0" y="164.0" width="28.0" height="26.0" rx="5" ry="5" fill="#7EB3E0"/>
  <rect x="294.0" y="164.0" width="28.0" height="26.0" rx="5" ry="5" fill="#7EB3E0"/>
  <rect x="110.0" y="206.0" width="28.0" height="26.0" rx="5" ry="5" fill="#7EB3E0"/>
  <rect x="156.0" y="206.0" width="28.0" height="26.0" rx="5" ry="5" fill="#7EB3E0"/>
  <rect x="202.0" y="206.0" width="28.0" height="26.0" rx="5" ry="5" fill="#7EB3E0"/>
  <rect x="248.0" y="206.0" width="28.0" height="26.0" rx="5" ry="5" fill="#7EB3E0"/>
  <rect x="294.0" y="206.0" width="28.0" height="26.0" rx="5" ry="5" fill="#7EB3E0"/>
  <rect x="80.0" y="280.0" width="300.0" height="100.0" rx="10" ry="10" fill="#F7F4EE"/>
  <rect x="100.0" y="280.0" width="18.0" height="100.0" rx="6" ry="6" fill="#E8E2D6"/>
  <rect x="170.0" y="280.0" width="18.0" height="100.0" rx="6" ry="6" fill="#E8E2D6"/>
  <rect x="240.0" y="280.0" width="18.0" height="100.0" rx="6" ry="6" fill="#E8E2D6"/>
  <rect x="310.0" y="280.0" width="18.0" height="100.0" rx="6" ry="6" fill="#E8E2D6"/>
  <rect x="120.0" y="295.0" width="200.0" height="70.0" rx="8" ry="8" fill="#D9D2C4"/>
  <rect x="150.0" y="310.0" width="50.0" height="40.0" rx="6" ry="6" fill="#4A5160"/>
  <rect x="156.0" y="316.0" width="16.0" height="12.0" rx="2" ry="2" fill="#E57373"/>
  <rect x="176.0" y="316.0" width="16.0" height="12.0" rx="2" ry="2" fill="#F5D76E"/>
  <rect x="156.0" y="332.0" width="16.0" height="10.0" rx="2" ry="2" fill="#6BA3D9"/>
  <rect x="176.0" y="332.0" width="16.0" height="10.0" rx="2" ry="2" fill="#7BC47F"/>
  <rect x="230.0" y="340.0" width="70.0" height="14.0" rx="6" ry="6" fill="#E57373"/>
  <rect x="80.0" y="390.0" width="300.0" height="50.0" rx="14" ry="14" fill="#E8EBEF"/>
</svg>
